<svg xmlns="http://www.w3.org/2000/svg" width="224.626" height="224.626" viewBox="0 0 224.626 224.626">
  <path id="clear" d="M299.011,1599.929H265.317a5.616,5.616,0,0,1,0-11.231h33.694a5.616,5.616,0,0,1,0,11.231Zm-51.1-53.293a5.519,5.519,0,0,1-7.94,0,5.615,5.615,0,0,1,0-7.918l23.827-23.811a5.616,5.616,0,0,1,7.94,7.919ZM192.313,1650.47a56.157,56.157,0,1,1,56.157-56.156A56.157,56.157,0,0,1,192.313,1650.47Zm0-101.082a44.925,44.925,0,1,0,44.925,44.926A44.925,44.925,0,0,0,192.313,1549.388Zm0-22.463a5.615,5.615,0,0,1-5.616-5.615v-33.694a5.616,5.616,0,0,1,11.231,0v33.694A5.615,5.615,0,0,1,192.313,1526.925Zm-55.567,19.711-23.827-23.81a5.627,5.627,0,0,1,7.941-7.976l23.827,23.867a5.616,5.616,0,0,1-7.94,7.918Zm-11.821,47.678a5.616,5.616,0,0,1-5.616,5.615H85.616a5.616,5.616,0,0,1,0-11.231H119.31A5.616,5.616,0,0,1,124.925,1594.313Zm11.793,47.677a5.519,5.519,0,0,1,7.94,0,5.615,5.615,0,0,1,0,7.918l-23.827,23.811a5.616,5.616,0,0,1-7.94-7.919Zm55.6,19.711a5.616,5.616,0,0,1,5.616,5.615v33.694a5.616,5.616,0,0,1-11.231,0v-33.694A5.616,5.616,0,0,1,192.313,1661.7Zm55.595-19.768,23.827,23.811a5.627,5.627,0,0,1-7.941,7.975l-23.827-23.811a5.627,5.627,0,0,1,7.94-7.976Z" transform="translate(-80 -1482)" fill="#fff" fill-rule="evenodd"/>
</svg>
