<svg xmlns="http://www.w3.org/2000/svg" xmlns:xlink="http://www.w3.org/1999/xlink" width="111.078" height="85.221" viewBox="0 0 111.078 85.221">
  <defs>
    <filter id="cloudy-sun" x="0" y="0" width="111.078" height="85.221" filterUnits="userSpaceOnUse">
      <feOffset dx="6" dy="3" input="SourceAlpha"/>
      <feGaussianBlur stdDeviation="3" result="blur"/>
      <feFlood flood-opacity="0.161"/>
      <feComposite operator="in" in2="blur"/>
      <feComposite in="SourceGraphic"/>
    </filter>
  </defs>
  <g transform="matrix(1, 0, 0, 1, 0, 0)" filter="url(#cloudy-sun)">
    <path id="cloudy-sun-2" data-name="cloudy-sun" d="M260.014,143.2c-.069,0-32.725.022-48.33.022a12.065,12.065,0,0,1-1.034-24.075,17.033,17.033,0,0,1-2.413-8.673,17.205,17.205,0,0,1,32.077-8.687,24.975,24.975,0,1,1,19.7,41.413ZM225.472,96.685a13.711,13.711,0,0,0-10.635,22.46,17.2,17.2,0,0,1,20.832-9.638,24.627,24.627,0,0,1,2.354-4.678,13.758,13.758,0,0,0-12.551-8.144Zm33.61,0A21.647,21.647,0,0,0,238.4,112.213a1.724,1.724,0,0,1-2.335,1.1,13.7,13.7,0,0,0-5.441-1.119,13.853,13.853,0,0,0-13.229,9.927,1.724,1.724,0,0,1-2.332,1.1,8.511,8.511,0,0,0-3.377-.693,8.618,8.618,0,0,0,0,17.236c15.6,0,48.261-.021,48.261-.021a21.545,21.545,0,0,0-.862-43.069Zm-16.547-.836a1.724,1.724,0,0,1-2.437-2.437l7.314-7.313a1.724,1.724,0,0,1,2.437,2.437ZM225.472,89.79a1.724,1.724,0,0,1-1.724-1.724V77.724a1.724,1.724,0,1,1,3.447,0V88.065a1.724,1.724,0,0,1-1.723,1.724Zm-17.064,6.053L201.1,88.53a1.724,1.724,0,0,1,2.437-2.437l7.322,7.317a1.724,1.724,0,0,1-2.439,2.434Zm-3.621,14.63a1.724,1.724,0,0,1-1.724,1.724h-10.34a1.724,1.724,0,1,1,0-3.447h10.342a1.724,1.724,0,0,1,1.724,1.722Z" transform="translate(-188 -70)" fill="#43a6df" fill-rule="evenodd"/>
  </g>
</svg>
