<svg xmlns="http://www.w3.org/2000/svg" width="266.642" height="207.365" viewBox="0 0 266.642 207.365">
  <path id="drizzle" d="M626.652,1285.744h-10.8c-.1,0-.2.054-.3.054a5.441,5.441,0,1,1,0-10.882h0v-.054h10.882a68.012,68.012,0,1,0-68.012-86.947,5.442,5.442,0,0,1-2.9,3.374,5.359,5.359,0,0,1-4.472.109,43.263,43.263,0,0,0-17.178-3.538,43.738,43.738,0,0,0-41.765,31.34,5.387,5.387,0,0,1-7.362,3.483,27.205,27.205,0,1,0-10.659,52.234h10.882a5.441,5.441,0,1,1,0,10.882H474.087a38.087,38.087,0,0,1,0-76.174,36.515,36.515,0,0,1,9.435,1.2,54.338,54.338,0,0,1,66.285-31.446,78.894,78.894,0,1,1,76.845,106.368Zm-124.436,21.111a6.529,6.529,0,1,1-8.918,2.394A6.53,6.53,0,0,1,502.217,1306.855Zm18.619-32.211a6.529,6.529,0,1,1-8.918,2.394A6.529,6.529,0,0,1,520.836,1274.645Zm4.679,48.534a6.529,6.529,0,1,1-4.958-.653A6.529,6.529,0,0,1,525.515,1323.179Zm13.864-80.635a6.529,6.529,0,1,1-8.918,2.394,6.528,6.528,0,0,1,8.918-2.394Zm4.761,48.425a13.4,13.4,0,1,1-.011,0Zm18.537-32.1a17.808,17.808,0,1,1-.011,0Zm4.843,47.99a17.788,17.788,0,1,1-.011,0Zm18.619-32.211a17.788,17.788,0,1,1-.011,0Zm18.532-32.1a6.529,6.529,0,1,1-8.918,2.394,6.528,6.528,0,0,1,8.918-2.394Z" transform="translate(-436 -1127.997)" fill="#fff" fill-rule="evenodd"/>
</svg>
