<svg xmlns="http://www.w3.org/2000/svg" width="274.642" height="213.312" viewBox="0 0 274.642 213.312">
  <path id="rain" d="M632.374,1170.478h-11.13c-.106,0-.2.056-.3.056a5.6,5.6,0,0,1,0-11.209h0v-.056H632.15a70.054,70.054,0,1,0-70.054-89.556,5.6,5.6,0,0,1-2.987,3.474,5.515,5.515,0,0,1-4.606.112,44.576,44.576,0,0,0-17.693-3.643,45.053,45.053,0,0,0-43.018,32.281,5.549,5.549,0,0,1-7.583,3.587,28.022,28.022,0,1,0-10.979,53.8h11.209a5.6,5.6,0,1,1,0,11.209H475.23a39.23,39.23,0,1,1,0-78.459,37.632,37.632,0,0,1,9.718,1.232,56.346,56.346,0,0,1,51.856-34.858,55.782,55.782,0,0,1,16.417,2.468,81.262,81.262,0,1,1,79.153,109.561Zm-97.548-42.312a5.6,5.6,0,0,1,9.707,5.6l-39.23,67.923a5.6,5.6,0,0,1-9.707-5.6Zm23.852,16.813a5.6,5.6,0,0,1,9.707,5.6l-39.23,67.924a5.6,5.6,0,0,1-9.707-5.6Zm43.4-16.813a5.6,5.6,0,0,1,9.707,5.6l-39.23,67.923a5.6,5.6,0,0,1-9.707-5.6Z" transform="translate(-436 -1007.997)" fill="#fff" fill-rule="evenodd"/>
</svg>
