<svg xmlns="http://www.w3.org/2000/svg" width="273.552" height="221.704" viewBox="0 0 273.552 221.704">
  <path id="snow" d="M271.6,1529.834h-5.482c-.112,0-.212.055-.324.055a5.582,5.582,0,0,1,0-11.164h0v-.055h5.582a69.776,69.776,0,1,0-69.776-89.2,5.582,5.582,0,0,1-2.981,3.462,5.488,5.488,0,0,1-4.589.111,44.382,44.382,0,0,0-17.623-3.63,44.874,44.874,0,0,0-42.848,32.154,5.526,5.526,0,0,1-7.553,3.573,27.911,27.911,0,1,0-10.93,53.588h11.164a5.582,5.582,0,0,1,0,11.164H115.074a39.074,39.074,0,1,1,0-78.148,37.505,37.505,0,0,1,9.679,1.227,56.117,56.117,0,0,1,51.651-34.72,55.546,55.546,0,0,1,16.351,2.458,80.94,80.94,0,1,1,78.84,109.128Zm-142.5,27.854h6.33l-3.165-5.47a2.791,2.791,0,0,1,4.834-2.791l3.165,5.47,3.165-5.47a2.791,2.791,0,0,1,4.834,2.791l-3.165,5.47h6.33a2.791,2.791,0,1,1,0,5.582h-6.33l3.165,5.47a2.837,2.837,0,0,1-1.021,3.852,2.792,2.792,0,0,1-3.813-1.061l-3.121-5.358h-.106l-3.1,5.358a2.791,2.791,0,0,1-3.813,1.06,2.835,2.835,0,0,1-1.021-3.851l3.1-5.359a.266.266,0,0,1-.028-.112h-6.241a2.791,2.791,0,1,1,0-5.582Zm28.039,16.746h6.33l-3.171-5.47a2.791,2.791,0,1,1,4.834-2.79l3.165,5.47,3.165-5.47a2.791,2.791,0,1,1,4.834,2.79l-3.165,5.47h6.33a2.791,2.791,0,0,1,0,5.583h-6.324l3.165,5.47a2.84,2.84,0,0,1-1.022,3.851,2.79,2.79,0,0,1-3.813-1.06l-3.12-5.358h-.112l-3.1,5.358a2.791,2.791,0,0,1-3.813,1.06,2.835,2.835,0,0,1-1.021-3.851l3.1-5.359a.258.258,0,0,1-.028-.111h-6.241a2.791,2.791,0,0,1,0-5.583Zm20.726-18.532a2.79,2.79,0,0,1-1.021-3.8l3.1-5.415a.258.258,0,0,1-.028-.111h-6.224a2.791,2.791,0,0,1,0-5.583h6.308l-3.165-5.47a2.791,2.791,0,0,1,4.834-2.791l3.165,5.47,3.165-5.47a2.791,2.791,0,0,1,4.834,2.791l-3.165,5.47h6.352a2.791,2.791,0,0,1,0,5.583h-6.352l3.165,5.526a2.79,2.79,0,0,1-1.021,3.8,2.823,2.823,0,0,1-3.813-1l-3.12-5.414h-.106l-3.1,5.414a2.823,2.823,0,0,1-3.812,1Zm23.651,1.786h6.33l-3.171-5.47a2.791,2.791,0,0,1,4.834-2.791l3.165,5.47,3.165-5.47a2.791,2.791,0,0,1,4.834,2.791l-3.165,5.47h6.33a2.791,2.791,0,1,1,0,5.582H217.5l3.165,5.47a2.829,2.829,0,0,1-1.022,3.851,2.791,2.791,0,0,1-3.813-1.059l-3.115-5.358H212.6l-3.1,5.358a2.791,2.791,0,0,1-3.813,1.06,2.842,2.842,0,0,1-1.022-3.852l3.1-5.358a.265.265,0,0,1-.028-.112H201.5a2.791,2.791,0,1,1,0-5.582Zm-30.612-30.645a2.792,2.792,0,0,1-2.791,2.791h-6.3l3.165,5.526a2.791,2.791,0,0,1-1.021,3.8,2.825,2.825,0,0,1-3.813-1.006l-3.12-5.413h-.106l-3.1,5.414a2.825,2.825,0,0,1-3.813,1.005,2.791,2.791,0,0,1-1.021-3.8l3.1-5.414a.258.258,0,0,1-.028-.111h-6.269a2.791,2.791,0,0,1,0-5.583h6.33l-3.165-5.47a2.791,2.791,0,0,1,4.834-2.791l3.165,5.47,3.165-5.47a2.791,2.791,0,0,1,4.834,2.791l-3.165,5.47h6.33A2.791,2.791,0,0,1,170.895,1527.042Zm22.406-33.6a2.792,2.792,0,0,1-2.791,2.791H184.2l3.165,5.47a2.791,2.791,0,0,1-4.834,2.79l-3.12-5.414c-.039,0-.073.056-.106.056l-3.1,5.358a2.791,2.791,0,0,1-4.834-2.79l3.1-5.359a.166.166,0,0,0-.028-.111H168.2a2.791,2.791,0,0,1,0-5.583h6.33l-3.165-5.47a2.791,2.791,0,0,1,4.834-2.791l3.165,5.47,3.165-5.47a2.791,2.791,0,0,1,4.834,2.791l-3.165,5.47h6.33a2.791,2.791,0,0,1,2.791,2.791Zm27.866,16.746a2.791,2.791,0,0,1-2.791,2.791h-6.33l3.165,5.47a2.793,2.793,0,0,1-4.84,2.791l-3.115-5.415c-.039,0-.067.056-.106.056l-3.1,5.359a2.791,2.791,0,0,1-4.834-2.791l3.1-5.359a.168.168,0,0,0-.028-.111H196.07a2.791,2.791,0,0,1,0-5.583h6.33l-3.165-5.47a2.791,2.791,0,0,1,4.834-2.79l3.165,5.47,3.159-5.47a2.793,2.793,0,0,1,4.84,2.791l-3.165,5.47h6.33a2.792,2.792,0,0,1,2.791,2.791Zm9.054,19.761a.253.253,0,0,1-.033-.111h-6.235a2.791,2.791,0,0,1,0-5.583h6.33l-3.165-5.47a2.791,2.791,0,0,1,4.834-2.791l3.165,5.47,3.165-5.47a2.791,2.791,0,0,1,4.834,2.791l-3.165,5.47h6.33a2.791,2.791,0,0,1,0,5.583h-6.33l3.165,5.526a2.791,2.791,0,0,1-1.021,3.8,2.825,2.825,0,0,1-3.813-1.006l-3.12-5.413h-.073l-3.1,5.414a2.825,2.825,0,0,1-3.813,1.005,2.791,2.791,0,0,1-1.021-3.8Zm14.564-24.45a2.79,2.79,0,0,1-1.021-3.8l3.1-5.359a.166.166,0,0,0-.028-.111H240.6a2.791,2.791,0,0,1,0-5.583h6.33l-3.165-5.47a2.791,2.791,0,0,1,4.834-2.791l3.165,5.47,3.165-5.47a2.791,2.791,0,0,1,4.834,2.791l-3.165,5.47h6.33a2.791,2.791,0,0,1,0,5.583H256.6l3.165,5.47a2.791,2.791,0,0,1-4.834,2.79l-3.12-5.414c-.033,0-.067.056-.106.056l-3.1,5.358a2.79,2.79,0,0,1-3.79,1.005Z" transform="translate(-76 -1367.998)" fill="#fff" fill-rule="evenodd"/>
</svg>
