<svg xmlns="http://www.w3.org/2000/svg" width="269.182" height="197.714" viewBox="0 0 269.182 197.714">
  <path id="thunderstorm" d="M628.47,1407.248H617.561c-.1,0-.192.055-.3.055a5.493,5.493,0,1,1,0-10.986v-.055H628.25a68.661,68.661,0,1,0-68.661-87.776,5.493,5.493,0,0,1-2.927,3.405,5.4,5.4,0,0,1-4.515.109,43.683,43.683,0,0,0-17.341-3.57,44.155,44.155,0,0,0-42.163,31.639,5.438,5.438,0,0,1-7.432,3.516,27.464,27.464,0,1,0-10.761,52.732h10.986a5.493,5.493,0,1,1,0,10.986H474.45a38.45,38.45,0,0,1,0-76.9,36.89,36.89,0,0,1,9.525,1.209,55.225,55.225,0,0,1,50.825-34.166,54.673,54.673,0,0,1,16.091,2.419,79.647,79.647,0,1,1,77.579,107.383Zm-98.668-4.119,27.426-43.943a2.665,2.665,0,0,1,3.675-.879,2.709,2.709,0,0,1,1.1,3.571l-16.144,34.44s16.671.055,13.54.055a2.138,2.138,0,0,1,1.39.331,2.8,2.8,0,0,1,1.1,3.789l-27.426,43.943a2.664,2.664,0,0,1-3.675.879,2.707,2.707,0,0,1-1.1-3.57l16.171-34.44s-17.3-.055-13.54-.055a2.136,2.136,0,0,1-1.39-.329A2.8,2.8,0,0,1,529.8,1403.129Z" transform="translate(-436 -1247.998)" fill="#fff" fill-rule="evenodd"/>
</svg>
