<svg xmlns="http://www.w3.org/2000/svg" xmlns:xlink="http://www.w3.org/1999/xlink" width="93.583" height="93.583" viewBox="0 0 93.583 93.583">
  <defs>
    <filter id="clear" x="0" y="0" width="93.583" height="93.583" filterUnits="userSpaceOnUse">
      <feOffset dy="3" input="SourceAlpha"/>
      <feGaussianBlur stdDeviation="3" result="blur"/>
      <feFlood flood-opacity="0.161"/>
      <feComposite operator="in" in2="blur"/>
      <feComposite in="SourceGraphic"/>
    </filter>
  </defs>
  <g transform="matrix(1, 0, 0, 1, 0, 0)" filter="url(#clear)">
    <path id="clear-2" data-name="clear" d="M153.693,1521.681H142.356a1.89,1.89,0,1,1,0-3.779h11.337a1.89,1.89,0,1,1,0,3.779ZM136.5,1503.749a1.857,1.857,0,0,1-2.672,0,1.889,1.889,0,0,1,0-2.664l8.017-8.012a1.89,1.89,0,0,1,2.672,2.665Zm-18.708,34.938a18.9,18.9,0,1,1,18.9-18.9,18.9,18.9,0,0,1-18.9,18.9Zm0-34.012a15.116,15.116,0,1,0,15.116,15.117,15.116,15.116,0,0,0-15.116-15.117Zm0-7.558a1.889,1.889,0,0,1-1.89-1.89V1483.89a1.89,1.89,0,1,1,3.779,0v11.338a1.889,1.889,0,0,1-1.889,1.891Zm-18.7,6.633-8.017-8.012a1.894,1.894,0,1,1,2.672-2.684l8.017,8.031a1.89,1.89,0,0,1-2.672,2.664Zm-3.978,16.043a1.889,1.889,0,0,1-1.889,1.889H81.89a1.89,1.89,0,1,1,0-3.779H93.227a1.89,1.89,0,0,1,1.889,1.888Zm3.968,16.042a1.857,1.857,0,0,1,2.672,0,1.889,1.889,0,0,1,0,2.664l-8.017,8.012a1.89,1.89,0,0,1-2.672-2.665Zm18.708,6.632a1.89,1.89,0,0,1,1.89,1.89v11.337a1.89,1.89,0,1,1-3.779,0v-11.337a1.89,1.89,0,0,1,1.888-1.89Zm18.707-6.651,8.017,8.012a1.893,1.893,0,0,1-2.672,2.684l-8.017-8.012a1.893,1.893,0,0,1,2.672-2.684Z" transform="translate(-71 -1476)" fill="#43a6df" fill-rule="evenodd"/>
  </g>
</svg>
