<svg xmlns="http://www.w3.org/2000/svg" xmlns:xlink="http://www.w3.org/1999/xlink" width="313.642" height="231.512" viewBox="0 0 313.642 231.512">
  <defs>
    <filter id="Cloudy_Icon" x="0" y="0" width="313.642" height="231.512" filterUnits="userSpaceOnUse">
      <feOffset dx="6" dy="3" input="SourceAlpha"/>
      <feGaussianBlur stdDeviation="3" result="blur"/>
      <feFlood flood-opacity="0.161"/>
      <feComposite operator="in" in2="blur"/>
      <feComposite in="SourceGraphic"/>
    </filter>
  </defs>
  <g transform="matrix(1, 0, 0, 1, 0, 0)" filter="url(#Cloudy_Icon)">
    <path id="Cloudy_Icon-2" data-name="Cloudy Icon" d="M410.206,289.441c-.219.005-103.942.071-153.51.071a38.323,38.323,0,0,1-3.285-76.47,54.1,54.1,0,0,1-7.665-27.549A54.648,54.648,0,0,1,347.63,157.9a79.328,79.328,0,1,1,62.575,131.54ZM300.493,141.7a43.551,43.551,0,0,0-33.779,71.34,54.648,54.648,0,0,1,66.167-30.614,78.22,78.22,0,0,1,7.478-14.858A43.7,43.7,0,0,0,300.493,141.7Zm106.756,0a68.756,68.756,0,0,0-65.7,49.321,5.475,5.475,0,0,1-7.418,3.5,43.519,43.519,0,0,0-17.283-3.553A44,44,0,0,0,274.828,222.5a5.475,5.475,0,0,1-7.407,3.509,27.032,27.032,0,0,0-10.725-2.2,27.373,27.373,0,1,0,0,54.747c49.562,0,153.291-.066,153.291-.066a68.433,68.433,0,0,0-2.737-136.8Zm-52.557-2.655a5.474,5.474,0,1,1-7.742-7.742l23.23-23.228a5.474,5.474,0,1,1,7.742,7.742Zm-54.2-19.243a5.475,5.475,0,0,1-5.475-5.475V81.475a5.475,5.475,0,1,1,10.949,0v32.848A5.475,5.475,0,0,1,300.493,119.8Zm-54.2,19.227L223.071,115.8a5.474,5.474,0,1,1,7.742-7.742l23.256,23.241a5.475,5.475,0,0,1-7.747,7.73Zm-11.5,46.469a5.475,5.475,0,0,1-5.475,5.475H196.475a5.475,5.475,0,1,1,0-10.949h32.848A5.475,5.475,0,0,1,234.8,185.493Z" transform="translate(-188 -70)" fill="#fff" fill-rule="evenodd"/>
  </g>
</svg>
