<svg xmlns="http://www.w3.org/2000/svg" xmlns:xlink="http://www.w3.org/1999/xlink" width="105.853" height="86.298" viewBox="0 0 105.853 86.298">
  <defs>
    <filter id="Rain_Icon" x="0" y="0" width="105.853" height="86.298" filterUnits="userSpaceOnUse">
      <feOffset dy="3" input="SourceAlpha"/>
      <feGaussianBlur stdDeviation="3" result="blur"/>
      <feFlood flood-opacity="0.161"/>
      <feComposite operator="in" in2="blur"/>
      <feComposite in="SourceGraphic"/>
    </filter>
  </defs>
  <g transform="matrix(1, 0, 0, 1, 0, 0)" filter="url(#Rain_Icon)">
    <path id="Rain_Icon-2" data-name="Rain Icon" d="M138.818,258.011h-3.559c-.034,0-.065.02-.1.02a1.794,1.794,0,0,1,0-3.588h0v-.02h3.586a22.425,22.425,0,1,0-22.409-28.669,1.792,1.792,0,0,1-2.429,1.146,14.246,14.246,0,0,0-5.66-1.161,14.412,14.412,0,0,0-13.761,10.334,1.792,1.792,0,0,1-2.426,1.15,8.84,8.84,0,0,0-3.512-.72,8.971,8.971,0,0,0,0,17.941h3.586a1.794,1.794,0,0,1,0,3.588H88.549a12.558,12.558,0,1,1,3.109-24.727,18.028,18.028,0,0,1,16.59-11.156,17.766,17.766,0,0,1,5.249.784,26,26,0,1,1,25.321,35.076Zm-41.961,5.1a1.793,1.793,0,1,1,3.105,1.794l-1.793,3.107a1.793,1.793,0,1,1-3.105-1.794Zm5.378-9.33a1.793,1.793,0,1,1,3.105,1.794l-1.793,3.107a1.793,1.793,0,1,1-3.105-1.794Zm2.248,14.712a1.793,1.793,0,1,1,3.105,1.794L105.8,273.4a1.793,1.793,0,1,1-3.105-1.794Zm1.994-18.469a1.8,1.8,0,0,1-.656-2.451l1.793-3.107a1.793,1.793,0,1,1,3.105,1.794l-1.793,3.107A1.792,1.792,0,0,1,106.476,250.025Zm3.385,9.15a1.793,1.793,0,1,1,3.105,1.794l-1.793,3.107a1.793,1.793,0,1,1-3.105-1.794Zm5.378-9.33a1.793,1.793,0,1,1,3.105,1.794l-1.793,3.107a1.793,1.793,0,1,1-3.105-1.794Zm3.13,13.262a1.793,1.793,0,1,1,3.105,1.794l-1.793,3.107a1.793,1.793,0,1,1-3.105-1.794Zm5.378-9.33a1.793,1.793,0,1,1,3.105,1.794l-1.793,3.107a1.793,1.793,0,1,1-3.105-1.794Zm5.378-9.33a1.793,1.793,0,1,1,3.105,1.794l-1.793,3.107a1.793,1.793,0,1,1-3.105-1.794Z" transform="translate(-67 -199.99)" fill="#43a6df" fill-rule="evenodd"/>
  </g>
</svg>
