<svg xmlns="http://www.w3.org/2000/svg" width="281" height="140.5" viewBox="0 0 281 140.5">
  <path id="fog" d="M713.975,1506.051h-56.2a7.025,7.025,0,0,1,0-14.051h56.2a7.025,7.025,0,0,1,0,14.051Zm-98.35,0h-168.6a7.025,7.025,0,0,1,0-14.051h168.6a7.025,7.025,0,0,1,0,14.051ZM461.075,1548.2a7.025,7.025,0,1,1,0-14.05h56.2a7.025,7.025,0,1,1,0,14.05Zm-14.05,28.1h168.6a7.025,7.025,0,1,1,0,14.05h-168.6a7.025,7.025,0,1,1,0-14.05Zm14.05,42.149h98.35a7.025,7.025,0,1,1,0,14.05h-98.35a7.025,7.025,0,1,1,0-14.05Zm140.5,0h98.35a7.025,7.025,0,1,1,0,14.05h-98.35a7.025,7.025,0,1,1,0-14.05Zm-42.15-70.25a7.025,7.025,0,1,1,0-14.05h140.5a7.025,7.025,0,1,1,0,14.05Zm91.325,35.125a7.025,7.025,0,0,1,7.025-7.024h56.2a7.025,7.025,0,1,1,0,14.05h-56.2A7.025,7.025,0,0,1,650.75,1583.325Z" transform="translate(-440 -1492)" fill="#fff" fill-rule="evenodd"/>
</svg>
