<svg xmlns="http://www.w3.org/2000/svg" xmlns:xlink="http://www.w3.org/1999/xlink" width="98.675" height="83.381" viewBox="0 0 98.675 83.381">
  <defs>
    <filter id="snow" x="0" y="0" width="98.675" height="83.381" filterUnits="userSpaceOnUse">
      <feOffset dy="3" input="SourceAlpha"/>
      <feGaussianBlur stdDeviation="3" result="blur"/>
      <feFlood flood-opacity="0.161"/>
      <feComposite operator="in" in2="blur"/>
      <feComposite in="SourceGraphic"/>
    </filter>
  </defs>
  <g transform="matrix(1, 0, 0, 1, 0, 0)" filter="url(#snow)">
    <path id="snow-2" data-name="snow" d="M133.684,1415.722h-1.617c-.033,0-.063.016-.1.016a1.646,1.646,0,0,1,0-3.292h0v-.016h1.646a20.577,20.577,0,1,0-20.577-26.306,1.646,1.646,0,0,1-.879,1.021,1.618,1.618,0,0,1-1.353.033,13.084,13.084,0,0,0-5.2-1.07,13.233,13.233,0,0,0-12.636,9.482,1.63,1.63,0,0,1-2.227,1.054,8.231,8.231,0,1,0-3.223,15.8h3.292a1.646,1.646,0,0,1,0,3.292H87.523a11.523,11.523,0,0,1,0-23.047,11.046,11.046,0,0,1,2.854.362,16.549,16.549,0,0,1,15.232-10.239,16.375,16.375,0,0,1,4.825.726,23.87,23.87,0,1,1,23.248,32.181Zm-42.024,8.215h1.867l-.933-1.613a.823.823,0,1,1,1.426-.823l.933,1.613.933-1.613a.823.823,0,1,1,1.426.823l-.933,1.613h1.867a.823.823,0,1,1,0,1.646H96.377l.933,1.613a.836.836,0,0,1-.3,1.136.824.824,0,0,1-1.124-.313l-.92-1.58h-.031l-.914,1.58a.823.823,0,0,1-1.124.312.836.836,0,0,1-.3-1.135l.914-1.58a.079.079,0,0,1-.008-.033H91.659a.823.823,0,0,1,0-1.646Zm8.269,4.938H101.8l-.935-1.613a.823.823,0,0,1,1.426-.823l.933,1.613.933-1.613a.823.823,0,0,1,1.426.823l-.933,1.613h1.867a.823.823,0,0,1,0,1.647h-1.865l.933,1.613a.838.838,0,0,1-.3,1.136.823.823,0,0,1-1.124-.313l-.92-1.58H103.2l-.914,1.58a.823.823,0,0,1-1.124.313.836.836,0,0,1-.3-1.136l.914-1.58a.077.077,0,0,1-.008-.033h-1.84a.823.823,0,1,1,0-1.646Zm6.112-5.465a.823.823,0,0,1-.3-1.121l.914-1.6a.075.075,0,0,1-.008-.033H104.81a.823.823,0,0,1,0-1.647h1.86l-.933-1.613a.823.823,0,1,1,1.426-.823l.933,1.613.933-1.613a.823.823,0,1,1,1.426.823l-.933,1.613h1.873a.823.823,0,0,1,0,1.647h-1.873l.933,1.63a.823.823,0,0,1-.3,1.121.833.833,0,0,1-1.124-.3l-.92-1.6h-.031l-.914,1.6a.832.832,0,0,1-1.124.3Zm6.975.527h1.867l-.935-1.613a.823.823,0,1,1,1.426-.823l.933,1.613.933-1.613a.823.823,0,1,1,1.426.823l-.933,1.613H119.6a.823.823,0,1,1,0,1.646h-1.869l.933,1.613a.834.834,0,0,1-.3,1.135.823.823,0,0,1-1.124-.312l-.919-1.58h-.034l-.914,1.58a.823.823,0,0,1-1.124.313.838.838,0,0,1-.3-1.136l.914-1.58a.078.078,0,0,1-.008-.033h-1.839a.823.823,0,1,1,0-1.646Zm-9.028-9.037a.823.823,0,0,1-.823.823h-1.858l.933,1.63a.823.823,0,0,1-.3,1.121.833.833,0,0,1-1.124-.3l-.92-1.6h-.031l-.914,1.6a.833.833,0,0,1-1.124.3.823.823,0,0,1-.3-1.121l.914-1.6a.076.076,0,0,1-.008-.033H96.581a.823.823,0,1,1,0-1.646h1.867l-.933-1.613a.823.823,0,1,1,1.426-.823l.933,1.613.933-1.613a.823.823,0,1,1,1.426.823l-.933,1.613h1.867a.823.823,0,0,1,.82.823Zm6.608-9.909a.823.823,0,0,1-.823.823h-1.864l.933,1.613a.823.823,0,1,1-1.426.823l-.92-1.6c-.012,0-.022.016-.031.016l-.914,1.58a.823.823,0,1,1-1.426-.823l.914-1.58a.049.049,0,0,0-.008-.033H103.19a.823.823,0,1,1,0-1.646h1.867l-.933-1.613a.823.823,0,1,1,1.426-.823l.933,1.613.933-1.613a.823.823,0,1,1,1.426.823l-.933,1.613h1.867a.823.823,0,0,1,.823.823Zm8.218,4.938a.823.823,0,0,1-.823.823h-1.867l.933,1.613a.824.824,0,0,1-1.427.823l-.919-1.6c-.011,0-.02.016-.031.016l-.914,1.58a.823.823,0,1,1-1.426-.823l.914-1.58a.049.049,0,0,0-.008-.033h-1.836a.823.823,0,1,1,0-1.646h1.867l-.933-1.613a.823.823,0,1,1,1.426-.823l.933,1.613.932-1.613a.824.824,0,0,1,1.427.823l-.933,1.613h1.867a.823.823,0,0,1,.823.823Zm2.67,5.828a.073.073,0,0,1-.01-.033h-1.839a.823.823,0,0,1,0-1.647H121.5l-.933-1.613a.823.823,0,1,1,1.426-.823l.933,1.613.933-1.613a.823.823,0,0,1,1.426.823l-.933,1.613h1.867a.823.823,0,0,1,0,1.647h-1.867l.933,1.63a.823.823,0,0,1-.3,1.121.833.833,0,0,1-1.124-.3l-.92-1.6h-.022l-.914,1.6a.833.833,0,0,1-1.124.3.823.823,0,0,1-.3-1.121Zm4.295-7.21a.822.822,0,0,1-.3-1.12l.914-1.58a.049.049,0,0,0-.008-.033h-1.842a.823.823,0,0,1,0-1.647h1.867l-.933-1.613a.823.823,0,0,1,1.426-.823l.933,1.613.933-1.613a.823.823,0,0,1,1.426.823l-.933,1.613h1.867a.823.823,0,0,1,0,1.647H129.26l.933,1.613a.823.823,0,1,1-1.426.823l-.92-1.6c-.01,0-.02.016-.031.016l-.914,1.58a.823.823,0,0,1-1.118.3Z" transform="translate(-67 -1362)" fill="#43a6df" fill-rule="evenodd"/>
  </g>
</svg>
